<?xml version="1.0" encoding="UTF-8" standalone="no"?>
<svg
   xmlns:dc="http://purl.org/dc/elements/1.1/"
   xmlns:cc="http://creativecommons.org/ns#"
   xmlns:rdf="http://www.w3.org/1999/02/22-rdf-syntax-ns#"
   xmlns:svg="http://www.w3.org/2000/svg"
   xmlns="http://www.w3.org/2000/svg"
   xmlns:xlink="http://www.w3.org/1999/xlink"
   xmlns:sodipodi="http://sodipodi.sourceforge.net/DTD/sodipodi-0.dtd"
   xmlns:inkscape="http://www.inkscape.org/namespaces/inkscape"
   width="1626.2587"
   height="349.71875"
   viewBox="0 0 430.28094 92.529753"
   version="1.1"
   id="svg8"
   inkscape:version="1.0.2 (e86c870879, 2021-01-15)"
   sodipodi:docname="monica-logo-marley.svg">
  <defs
     id="defs2">
    <inkscape:path-effect
       effect="powerclip"
       id="path-effect2634"
       is_visible="true"
       lpeversion="1"
       inverse="true"
       flatten="false"
       hide_clip="false"
       message="Use fill-rule evenodd on &lt;b&gt;fill and stroke&lt;/b&gt; dialog if no flatten result after convert clip to paths." />
    <linearGradient
       inkscape:collect="always"
       id="linearGradient1841">
      <stop
         style="stop-color:#ff8801;stop-opacity:1"
         offset="0"
         id="stop1837" />
      <stop
         style="stop-color:#fe500e;stop-opacity:1"
         offset="1"
         id="stop1839" />
    </linearGradient>
    <clipPath
       clipPathUnits="userSpaceOnUse"
       id="clipPath1803">
      <path
         id="path1805"
         style="fill:#ff0000;fill-opacity:1;fill-rule:nonzero;stroke:none;stroke-width:0.264583"
         d="m -25.204519,149.34827 v 69.38543 h 93.885743 c -0.07411,-0.0235 -0.157562,-0.0491 -0.206706,-0.10645 -0.0164,-0.0192 -0.02924,-0.041 -0.04393,-0.0615 -0.01429,-0.0214 -0.0717,-0.10674 -0.08733,-0.13126 -0.0011,-0.002 -0.0028,-0.006 -0.0041,-0.008 -0.04027,-0.021 -0.08538,-0.0481 -0.111104,-0.0775 -0.01198,-0.0137 -0.0186,-0.0314 -0.02791,-0.047 -2.65e-4,-7.9e-4 -5.29e-4,-0.002 -0.0011,-0.003 -0.02864,-0.0125 -0.05131,-0.0342 -0.07183,-0.0584 -0.02994,-0.0373 -0.05949,-0.055 -0.0078,-0.12144 0.02032,-0.0261 0.08131,-5.3e-4 0.103354,0.005 0.0058,0.001 0.0117,0.002 0.01757,0.004 -7.94e-4,-0.0113 -0.0011,-0.0228 -0.0036,-0.0341 -2.65e-4,-0.002 -0.0013,-0.006 -0.0026,-0.0109 -0.01492,-0.009 -0.01503,-0.0133 -0.0031,-0.015 -1.3e-5,-1.8e-4 -5.29e-4,-0.002 -5.29e-4,-0.002 0.0093,-0.0145 0.02101,-0.0276 0.03204,-0.0408 0.0019,-0.009 0.01188,-0.0155 0.0186,-0.0233 -5.29e-4,-1e-4 -0.0011,-2.6e-4 -0.0016,-5.3e-4 -0.0044,-0.002 -0.0084,-0.004 -0.01241,-0.007 -0.0052,-7.9e-4 -0.01037,-0.002 -0.01551,-0.003 -0.0013,-5.2e-4 -0.0019,-0.001 -0.0031,-0.002 -0.0141,-5.3e-4 -0.02799,-2.7e-4 -0.04237,-0.008 -0.0011,-5.3e-4 -0.0016,-0.002 -0.0031,-0.003 -0.0042,-0.003 -0.0083,-0.005 -0.01241,-0.008 -0.0016,-2.4e-4 -0.0038,-7.9e-4 -0.0052,-0.001 -0.0029,-2e-4 -0.005,-0.003 -0.0072,-0.005 -0.0013,-0.001 0.0078,0.003 0.0047,-0.002 -0.0094,-0.002 -0.01849,-0.003 -0.0279,-0.005 -0.03609,-0.006 -0.05442,-0.0215 -0.06511,-0.0393 -0.0026,-0.002 -0.0084,-0.003 -0.0093,-0.005 -5.29e-4,-7.9e-4 0.0016,-7.9e-4 0.0026,-0.001 -0.04868,-0.009 -0.0919,-0.0235 -0.132807,-0.0517 -0.02119,-0.005 -0.04297,-0.008 -0.06356,-0.0155 -0.03243,-0.0116 -0.05481,-0.0358 -0.08682,-0.047 -0.02021,-0.006 -0.03246,-0.01 -0.05323,-0.0186 -7.94e-4,-2.7e-4 -7.94e-4,-0.002 -0.0016,-0.002 -0.01453,-0.007 -0.0281,-0.0133 -0.04341,-0.0191 -0.0173,-0.01 -0.03069,-0.0174 -0.04393,-0.03 -0.0032,-0.002 -0.0041,-0.002 -0.0062,-0.003 -0.05861,-0.0311 0.05165,0.0266 -0.04392,-0.0186 -0.01185,-0.006 -0.02297,-0.0122 -0.03411,-0.0191 l -5.3e-4,-5.3e-4 c -7.93e-4,-8e-5 -0.0019,8e-5 -0.0026,0 -0.01852,-0.006 -0.02585,-0.007 -0.04599,-0.0186 -0.0072,-0.004 -0.01273,-0.0104 -0.01963,-0.015 -0.03687,-0.0246 -0.07689,-0.0442 -0.114721,-0.0672 -0.09994,-0.0607 -0.04701,-0.16562 0.05323,-0.10542 0.04076,0.0245 0.08334,0.0459 0.122992,0.0723 0.06729,0.0447 0.01109,0.0149 0.03617,0.0212 0.03506,0.01 0.007,-0.002 0.05271,0.0279 0.0011,8e-4 -7.94e-4,-0.003 5.29e-4,-0.003 0.0071,0.001 0.01397,0.004 0.02066,0.007 0.0095,0.004 0.0186,0.009 0.02791,0.0134 0.02543,0.0108 0.0075,10e-4 0.04289,0.0357 0.0011,0.001 -0.0011,-0.003 -0.0021,-0.004 -0.0024,-0.003 -0.01119,-0.008 -0.0078,-0.008 0.007,0.001 0.0123,0.007 0.0186,0.0103 0.01979,0.004 0.03619,0.018 0.05426,0.0264 7.94e-4,5.3e-4 2.9e-5,-0.003 0.0011,-0.003 0.0082,0.002 0.01577,0.005 0.02376,0.008 0.03953,0.006 0.06468,0.0432 0.101803,0.0532 0.0056,0.002 0.01127,5.3e-4 0.01707,0.002 0.0084,0.002 0.01701,0.004 0.02532,0.006 0.02905,0.006 0.05032,0.0279 0.07648,0.0398 0.0034,0.002 0.0078,0.001 0.01138,0.002 0.03772,0.009 0.0089,0.004 0.03514,0.008 0.0091,0.003 0.01868,0.006 0.02739,0.01 0.01191,0.006 0.03015,0.0208 0.04238,0.0274 0.006,0.003 0.02677,0.007 0.02997,0.008 0.0041,0.001 0.0079,0.003 0.01188,0.005 -1.11e-4,5.2e-4 0.008,0.006 0.0083,0.007 0.0039,0.002 0.008,0.003 0.01188,0.005 0.0052,0.003 0.0097,0.006 0.01447,0.0109 -0.0036,-2.6e-4 -0.0054,2.2e-4 -0.01085,-5.3e-4 5.29e-4,7.9e-4 0.0034,0.003 0.0041,0.004 0.0061,9e-5 0.01172,0.001 0.01757,0.002 -0.0062,-0.004 0.0055,0.004 0.0031,0.003 -7.93e-4,-8e-4 -0.0024,-0.001 0.0021,-0.002 0.02445,-0.003 0.02492,2.4e-4 0.05116,0.0139 7.94e-4,2.7e-4 0.0019,5.3e-4 0.0026,0.001 0.0026,8e-4 0.0033,8e-4 0.0047,0.002 5.3e-4,2.6e-4 0.0011,7.9e-4 0.0016,0.001 0.0035,0.002 0.0069,0.003 0.01035,0.005 0.0019,2.4e-4 0.0038,2.7e-4 0.0057,0.001 7.93e-4,2.7e-4 0.0016,8e-4 0.0026,0.001 -0.0016,-7.9e-4 0.0027,0.003 -0.0031,-0.002 -0.003,-0.002 0.0081,-0.002 0.01188,-0.002 0.03051,0.004 0.03188,0.005 0.05633,0.0119 0.02164,0.005 0.01611,-8e-4 0.04082,0.016 0.0056,10e-4 0.01175,0.002 0.02326,0.005 0.02156,0.006 0.03342,0.0162 0.04496,0.0264 0.03851,0.009 0.07767,0.0165 0.117306,0.0196 0.06823,0.007 0.1344,0.0273 0.20257,0.0346 0.08786,-2e-4 0.173956,0.0177 0.260451,0.031 0.05062,0.009 0.101565,0.002 0.152445,0.004 0.0087,1.9e-4 0.106889,0.007 0.116787,0.009 0.01844,0.002 0.03649,0.007 0.05478,0.0108 0.06738,0.0157 0.136001,0.004 0.204121,0.003 0.05629,-0.002 0.112723,0.004 0.168981,0.002 0.03654,-0.002 0.07343,-0.009 0.108522,-0.0191 0.01601,-0.003 0.0314,-0.007 0.04754,-0.008 0.02013,-0.002 0.04089,1.5e-4 0.06098,-0.003 7.93e-4,-1.1e-4 0.08254,-0.0199 0.0832,-0.0202 0.04049,-0.007 0.02193,-0.003 0.05478,-0.0109 0.07335,-0.0201 0.148593,-0.0339 0.223242,-0.0481 0.02305,-0.004 0.04649,-0.007 0.06925,-0.0129 0.01511,-0.004 0.02927,-0.0103 0.04392,-0.0155 0.01267,-0.005 0.02508,-0.0101 0.03772,-0.0155 0.03136,-0.0133 0.06153,-0.0242 0.0956,-0.0284 0.06901,-0.009 -0.0016,0.004 0.05478,-0.007 0.04427,-0.0231 0.09443,-0.0269 0.141594,-0.0403 0.01056,-0.003 0.02027,-0.008 0.03049,-0.0119 0.02805,-0.006 0.05829,-0.007 0.08527,-0.0176 0.01336,-0.005 0.02601,-0.0126 0.03927,-0.0181 0.05237,-0.0123 -0.0088,6e-5 0.05633,-0.002 0.0056,-2e-4 -0.01283,8e-4 -0.01601,-0.004 -0.0021,-0.003 0.0059,-0.005 0.0093,-0.006 0.01453,-0.007 0.02972,-0.0118 0.04444,-0.0181 0.03912,-0.005 0.07295,-0.0234 0.109037,-0.0377 0.02925,-0.0116 0.05895,-0.0219 0.08837,-0.0331 0.02474,-0.0116 0.05065,-0.0216 0.07545,-0.0331 0.0069,-0.003 0.01307,-0.007 0.02016,-0.01 0.0377,-0.0111 0.02283,-0.006 0.04548,-0.0145 0.0035,-0.002 0.0078,-0.003 0.01085,-0.006 0.0016,-0.001 0.0019,-0.004 0.0036,-0.006 0.02841,-0.0229 0.06187,-0.0347 0.0956,-0.0475 0.03618,-0.0148 0.07595,-0.0216 0.109035,-0.0434 l 0.0093,-0.008 c -5.29e-4,-2.7e-4 -0.0013,-5.3e-4 -0.0011,-10e-4 0.0063,-0.006 0.01344,-0.0121 0.02016,-0.0181 0.03175,-0.0212 0.06939,-0.0277 0.103352,-0.0439 0.007,-0.003 0.01953,-0.0144 0.02585,-0.0181 0.0071,-0.004 0.01439,-0.008 0.0217,-0.0114 0.01701,-0.007 0.03662,-0.0111 0.05116,-0.0233 0.0226,-0.019 -0.03369,0.0151 0.02479,-0.0217 0.009,-0.006 0.01892,-0.0101 0.02842,-0.015 0.02299,-0.0162 0.04285,-0.0367 0.06718,-0.0512 0.0075,-0.004 0.0268,-0.0136 0.03772,-0.0186 0.02661,-0.0121 0.04982,-0.0145 0.06769,-0.0103 v -0.002 c 0.05365,0.0122 0.06082,0.0822 -0.01913,0.11834 -0.0042,0.002 -0.0081,0.004 -0.01241,0.006 -0.0016,5.3e-4 -0.0033,-7.9e-4 -0.0047,0 -0.03158,0.0191 -0.05563,0.0488 -0.0894,0.0646 -0.0071,-0.004 -0.0021,-0.002 -0.01601,0.009 -0.02768,0.0227 -0.05048,0.0395 -0.08578,0.0491 -0.01265,0.002 7.94e-4,-2.6e-4 -0.02479,0.0155 -0.03074,0.019 -0.06519,0.0326 -0.100254,0.0413 -0.01659,0.0101 0.01127,-0.007 -0.02429,0.0238 -0.0413,0.0359 -0.09707,0.0482 -0.146762,0.0672 -0.0098,0.004 -0.01955,0.008 -0.02946,0.0114 -0.0038,10e-4 -0.0083,2.6e-4 -0.01188,0.003 -0.01577,0.008 -0.03191,0.0243 -0.04548,0.0331 -0.0078,0.005 -0.01651,0.008 -0.02479,0.0124 -0.0075,0.003 -0.01463,0.006 -0.02222,0.008 -0.0037,10e-4 -0.0078,8e-4 -0.01138,0.002 -0.0086,0.003 -0.01656,0.008 -0.02479,0.0119 -0.02666,0.0123 -0.0545,0.0223 -0.08113,0.0346 -0.02777,0.0105 -0.0556,0.02 -0.0832,0.031 -0.03581,0.0142 -0.0705,0.0334 -0.109556,0.0372 -0.01484,0.006 -0.06173,0.0284 -0.07389,0.031 -0.0081,0.002 -0.01648,0.002 -0.02479,0.002 -0.01127,0.005 -0.02238,0.01 -0.03359,0.0145 0.01662,0.0676 0.01929,0.078 -0.02532,0.0915 0,0 -5.29e-4,0 -5.29e-4,0 -0.0013,0.001 -0.0027,0.002 -0.0041,0.003 0.0034,-0.01 -2.65e-4,-0.002 -0.01601,0.009 -4.5e-5,5e-5 -0.0013,7.9e-4 -0.0011,5.2e-4 -0.0042,0.003 -0.009,0.007 -0.01344,0.0104 -7.1e-5,5.3e-4 5.3e-5,0.002 0,0.002 -0.0016,0.0121 -5.29e-4,0.0245 0,0.0367 -0.0024,0.0124 -0.0037,0.0251 -0.0072,0.0372 -0.01172,0.0407 -0.02318,0.0482 -0.04341,0.091 -0.009,0.019 -0.0163,0.039 -0.02429,0.0584 -0.01169,0.0275 -0.0223,0.0552 -0.03514,0.0822 -0.01384,0.0291 -0.02998,0.0572 -0.04496,0.0858 -0.02825,0.0437 -0.0793,0.12422 -0.109553,0.16536 -0.01863,0.0253 -0.03948,0.0492 -0.05891,0.0739 -0.01976,0.0252 -0.0366,0.0471 -0.05581,0.0698 H 139.82613 V 149.3479 Z m 93.435642,68.72035 c 1.19e-4,0.002 0.0013,0.008 0.0031,0.015 0.0032,0.002 0.0033,0.003 0.0083,0.005 0.01799,0.008 0.03575,0.0165 0.05374,0.0248 0.0065,-0.009 0.01331,-0.018 0.01963,-0.0274 -0.01865,-0.004 -0.03202,-0.01 -0.04134,-0.0181 -0.01683,-2.6e-4 -0.03404,-7.9e-4 -0.04341,5.3e-4 z m 0.03617,-0.18655 c 0.0066,0.006 0.0082,0.008 0.01291,0.0109 0.0024,0.002 -0.0034,-0.005 -0.0057,-0.007 -0.0024,-0.002 -0.0047,-0.003 -0.0072,-0.004 z m 2.382801,0.12144 c -0.0067,5.3e-4 -0.01331,0.002 -0.02016,0.003 0.0073,-5.3e-4 0.01474,-0.001 0.02119,-0.001 -6.6e-5,-10e-4 -7.93e-4,-5.3e-4 -0.0011,-0.002 z m -2.293917,0.0956 c 0.0011,0.008 0.0026,0.0139 0.0041,0.0413 2.64e-4,0.008 7.93e-4,0.0162 0.0016,0.0243 0.0045,0.003 0.0087,0.006 0.01291,0.009 0.0031,-8e-4 0.0066,-0.002 0.0098,-0.002 0.0064,-10e-4 0.01273,-10e-4 0.01913,-0.002 2.65e-4,0 0.0019,-1e-5 0.0026,0 0.01125,-0.008 0.02291,-0.0146 0.03462,-0.0217 -0.0032,-0.007 -0.004,-0.0152 -0.0041,-0.0233 -8e-6,-5.3e-4 -5.29e-4,-0.001 -5.29e-4,-0.002 -0.0041,-5.3e-4 -0.0082,-0.002 -0.01241,-0.002 -0.0011,-8e-4 -0.0016,-5.3e-4 -0.0031,-0.002 -0.0048,-0.001 -0.0063,-2.7e-4 -0.0093,-0.001 -0.01908,-0.004 -0.03708,-0.0121 -0.0553,-0.0196 z m 2.424142,0.0134 c -0.01029,0.0119 -0.02006,0.0237 -0.03772,0.0315 -0.04822,0.0222 -0.09757,0.0403 -0.147278,0.0589 -0.0094,0.004 -0.01902,0.007 -0.02842,0.0103 -0.0038,0.001 -0.0082,0.004 -0.01138,0.005 -0.0011,8e-4 -0.0016,0.002 -0.0026,0.003 -0.01656,0.0109 -0.02868,0.008 -0.04341,0.009 -0.01717,0.005 -0.03386,0.0107 -0.05064,0.0165 -0.004,0.001 -0.0074,0.004 -0.01138,0.005 -0.0046,0.002 -0.0084,0.002 -0.01291,0.003 -0.01201,0.005 -0.02498,0.007 -0.03669,0.0124 -0.01482,0.007 -0.02887,0.0155 -0.04341,0.0233 -0.01701,0.009 -0.03371,0.0198 -0.05116,0.0284 -0.01865,0.009 -0.03829,0.0165 -0.05736,0.0248 -0.02614,0.0109 -0.05382,0.016 -0.08061,0.0248 -0.0083,0.003 -0.02056,0.009 -0.02946,0.0108 -0.0094,0.002 -0.01902,7.9e-4 -0.02842,0.002 -0.0047,5.3e-4 0.0097,9e-5 0.01447,0 -0.0016,10e-4 -0.0029,0.003 -0.0047,0.004 -0.007,0.003 -0.03716,0.0151 -0.04496,0.0186 -0.05254,0.0235 -0.105011,0.047 -0.158131,0.0692 -0.02307,0.009 -0.04579,0.0192 -0.06924,0.0274 -0.01897,0.007 -0.03843,0.0119 -0.05788,0.017 0.0016,0.0237 -0.02959,0.0371 -0.04651,0.0537 -0.0122,0.012 -0.02731,0.0215 -0.04082,0.032 -0.06332,0.0493 -0.04412,0.0343 -0.108006,0.0811 -0.0182,0.0136 -0.03689,0.0261 -0.05426,0.0408 -0.01016,0.009 -0.0028,0.003 -0.0083,0.008 h 0.838189 c 0.01297,-0.0106 0.02627,-0.0211 0.03928,-0.0315 0.0097,-0.009 0.01974,-0.0181 0.02894,-0.0279 0.02484,-0.0264 0.04524,-0.0562 0.0677,-0.0847 0.01752,-0.0222 0.03646,-0.0429 0.05323,-0.0656 0.02445,-0.0332 0.07858,-0.11738 0.102835,-0.15451 0.01355,-0.0255 0.02841,-0.0504 0.04083,-0.0765 0.01278,-0.0268 0.02302,-0.0548 0.03462,-0.0822 0.0098,-0.023 0.01873,-0.0466 0.02945,-0.0692 0.0046,-0.01 0.0105,-0.0187 0.01601,-0.0279 z m -2.259809,0.12196 c -0.02286,0.0153 -0.04494,0.0319 -0.06925,0.045 -0.01246,0.003 -0.02513,0.007 -0.03772,0.009 -0.0019,5.3e-4 -2.65e-4,-1.9e-4 -0.0016,0 0.0013,0.009 0.0028,0.0175 0.0036,0.0264 2.01e-4,10e-4 -0.0013,0.003 -0.0011,0.004 0.0013,0.005 0.0061,0.0114 0.01085,0.0196 0.09284,0.0369 0.191368,0.0542 0.290422,0.0682 -0.0033,-0.009 -0.0037,-0.0192 -0.0057,-0.0289 0.0029,-0.01 0.0057,-0.0198 0.0088,-0.0294 -0.02926,-0.0113 -0.05783,-0.0248 -0.08475,-0.0419 -0.01564,-0.009 -0.03118,-0.0179 -0.04651,-0.0269 -0.02719,-0.016 -0.02183,-0.008 -0.05219,-0.031 -0.0043,-0.003 -0.0077,-0.008 -0.01138,-0.0119 -0.0013,-7.9e-4 -0.0024,-0.001 -0.0036,-0.002 z m 0.369485,0.14573 c 0.0024,0.001 0.0048,0.003 0.0072,0.004 0.01781,0.007 0.04561,0.005 0.07183,5.3e-4 -0.02635,-4e-5 -0.05276,-0.003 -0.07906,-0.004 z m -0.06925,0.0207 c -7.94e-4,0.001 -0.0019,0.002 -0.0026,0.003 -5.29e-4,7.9e-4 -0.0011,0.004 -5.29e-4,0.003 0.0011,-0.002 0.0021,-0.004 0.0031,-0.006 z m -0.297141,0.0899 c 7.94e-4,0.001 0.0035,0.005 0.0041,0.006 0.0096,0.0147 0.02588,0.0462 0.04341,0.0594 0.01881,0.0143 0.04147,0.0218 0.06305,0.031 0.01691,-0.023 0.07738,-0.0441 0.09612,-0.0568 -0.0016,-7.9e-4 -0.0019,-0.002 -0.0036,-0.003 -0.06839,-0.01 -0.136099,-0.0217 -0.203089,-0.0372 z m 0.203089,0.0372 c 0.0021,2.6e-4 0.0042,2.2e-4 0.0062,5.3e-4 0.0071,-0.006 0.0029,-0.01 -0.02532,-0.0103 -0.01495,-2.6e-4 0.0032,-2.6e-4 0.01241,0.004 0.0043,0.002 0.0034,0.004 0.0067,0.006 z m 0.0062,5.3e-4 c -5.29e-4,5.3e-4 -0.0019,0.002 -0.0026,0.002 0.01728,0.009 0.02689,0.0137 0.04082,0.0326 0.0054,0.007 0.0104,0.0147 0.0155,0.0222 0.01222,0.0376 0.0146,0.0292 0.07234,0.0341 0.08208,0.007 0.16514,0.005 0.247531,-5.3e-4 0.007,-0.003 0.01371,-0.006 0.02066,-0.009 -0.0078,-0.002 -0.02988,-0.007 -0.03152,-0.007 -0.03245,-0.004 -0.06774,-0.008 -0.07338,-0.01 -0.0085,-0.002 -0.01619,-0.007 -0.02429,-0.0103 -0.02032,0.004 -0.04244,0.0113 -0.05736,-0.001 -0.0058,-0.005 -0.0078,-0.0129 -0.01188,-0.0191 -0.02869,-0.006 0.01214,0.002 -0.05064,-0.0119 -0.04773,-0.009 -0.0966,-0.0153 -0.145211,-0.0222 z m 0.719336,0.11627 c -0.0026,0.001 -0.0052,0.002 -0.0078,0.003 0,0 -5.29e-4,5.3e-4 -5.29e-4,5.3e-4 -0.0013,0.002 -0.0027,0.005 -0.0041,0.007 0.0039,-0.004 0.0084,-0.007 0.01241,-0.0103 z m -0.175183,0.0713 c -0.01159,0.003 -0.02307,0.006 -0.03462,0.009 -0.0354,0.004 -0.04621,0.005 -0.06666,0.008 h 0.09405 c 0.0026,-0.005 0.0053,-0.0113 0.0072,-0.0165 z" />
    </clipPath>
    <linearGradient
       inkscape:collect="always"
       xlink:href="#linearGradient1841"
       id="linearGradient1843"
       x1="28.730103"
       y1="190.32671"
       x2="80.089897"
       y2="168.73289"
       gradientUnits="userSpaceOnUse" />
    <linearGradient
       inkscape:collect="always"
       xlink:href="#linearGradient1841"
       id="linearGradient1855"
       gradientUnits="userSpaceOnUse"
       x1="28.730103"
       y1="190.32671"
       x2="80.089897"
       y2="168.73289"
       gradientTransform="matrix(3.7795276,0,0,3.7795276,102.94086,-561.23739)" />
    <filter
       inkscape:collect="always"
       style="color-interpolation-filters:sRGB"
       id="filter2597"
       x="-0.10799988"
       width="1.2159998"
       y="-0.10800012"
       height="1.2160002">
      <feGaussianBlur
         inkscape:collect="always"
         stdDeviation="2.1852875"
         id="feGaussianBlur2599" />
    </filter>
    <clipPath
       clipPathUnits="userSpaceOnUse"
       id="clipPath2630">
      <path
         style="display:none;opacity:0.6;fill:#ffffff;fill-opacity:1;stroke:none;stroke-width:4.04061"
         d="m 57.70976,189.93969 c -0.747649,-0.36845 -1.1059,-1.38166 -1.362093,-3.85229 -0.08631,-0.83239 -0.07821,-1.82368 0.02524,-3.08529 0.08382,-1.02237 0.15222,-2.03926 0.151987,-2.25976 -5.29e-4,-0.63374 -1.360175,-3.7565 -2.149954,-4.93837 -0.820311,-1.22757 -1.490937,-1.81018 -2.083638,-1.81018 -0.912466,0 -2.592139,2.45579 -3.295862,4.81877 l -0.277593,0.9321 0.270476,0.96656 c 0.792488,2.83199 1.152464,6.07651 0.821211,7.40169 -0.190646,0.76268 -0.724895,1.38251 -1.19162,1.38251 -0.551961,0 -1.174962,-0.59325 -1.50785,-1.43584 -0.276275,-0.6993 -0.304472,-0.99362 -0.310552,-3.24138 -0.0052,-1.93744 0.04996,-2.75813 0.255196,-3.79384 l 0.261882,-1.32161 -0.375198,-1.08382 c -0.602657,-1.74086 -2.11977,-4.73558 -3.000245,-5.92236 -1.36275,-1.83684 -2.793095,-2.73837 -3.991774,-2.51597 -0.724948,0.1345 -1.628352,1.10995 -2.085449,2.25175 -0.197268,0.49277 -0.50483,1.6315 -0.683474,2.53052 -0.462158,2.32579 -0.321146,2.23787 -3.591518,2.23916 -1.410758,5.3e-4 -2.948376,0.0632 -3.416924,0.13924 -0.739108,0.11993 -0.885089,0.10821 -1.102487,-0.0885 -0.137819,-0.12472 -0.250579,-0.3284 -0.250579,-0.45261 0,-0.68866 1.169223,-0.93545 4.431946,-0.93545 2.360591,0 2.378757,-0.002 2.43483,-0.30067 0.26838,-1.42838 0.805117,-3.34458 1.133235,-4.04575 0.726059,-1.55155 2.118963,-2.60576 3.434545,-2.5994 1.035569,0.005 1.572493,0.18429 2.602299,0.8689 1.540952,1.02443 3.220918,3.40272 4.484222,6.34824 0.266991,0.62252 0.527817,1.17806 0.579612,1.23453 0.05179,0.0565 0.373346,-0.45468 0.71456,-1.1359 0.699749,-1.397 1.396156,-2.36044 2.136312,-2.95546 0.692907,-0.55703 1.815158,-0.65112 2.693662,-0.22585 1.083038,0.52429 2.249302,2.07226 3.224909,4.28037 l 0.442393,1.00128 0.1479,-0.39993 c 0.637987,-1.72515 0.879605,-2.2692 1.410674,-3.17643 1.133506,-1.93637 2.564648,-3.03532 4.097192,-3.14618 0.640918,-0.0464 0.902686,0.01 1.625764,0.34805 1.601859,0.7496 2.646653,2.09559 3.859818,4.97252 l 0.196911,0.46696 0.277034,-0.54303 c 0.460087,-0.90185 1.32319,-1.89173 1.990355,-2.28272 1.048269,-0.61432 1.871414,-0.70868 5.449171,-0.62465 3.456101,0.0812 3.81477,0.15319 3.81477,0.76595 0,0.63881 -0.159488,0.66289 -3.808426,0.57493 -4.575207,-0.11027 -4.83204,-0.0379 -5.952159,1.67614 -0.275958,0.42229 -0.666197,1.21871 -0.867196,1.76981 -0.353375,0.96889 -0.360455,1.04098 -0.214225,2.18121 0.218625,1.70477 0.190042,4.60191 -0.05833,5.91118 -0.380849,2.00768 -0.98969,2.82745 -1.774005,2.38858 -0.195281,-0.10927 -0.426828,-0.40712 -0.514553,-0.66188 -0.348219,-1.01127 -0.151477,-4.47787 0.397914,-7.01132 0.383964,-1.77059 0.368028,-2.4418 -0.09043,-3.80859 -0.777473,-2.31787 -1.874258,-3.95849 -3.045928,-4.55623 -0.639765,-0.32639 -1.583587,-0.3258 -2.224919,0.001 -0.601054,0.30663 -1.449234,1.19936 -1.947804,2.0501 -0.56026,0.95602 -1.375804,3.04948 -1.669161,4.28466 l -0.265067,1.11607 0.323003,1.04689 c 0.635685,2.06034 1.221512,5.73929 1.06821,6.70825 -0.03252,0.20556 -0.0953,0.60381 -0.139499,0.88501 -0.06644,0.42265 -0.159327,0.54426 -0.535842,0.70159 -0.544216,0.22738 -0.435673,0.23113 -0.972889,-0.0336 z m -9.318127,-1.61356 c 0.277574,-0.71642 0.308573,-1.53445 0.120269,-3.17383 -0.109747,-0.95549 -0.255797,-1.79438 -0.324546,-1.8642 -0.213162,-0.21649 -0.151924,3.13544 0.0708,3.8755 0.171984,0.57147 0.171984,0.67694 0,0.86698 -0.218189,0.2411 -0.259832,0.52941 -0.07647,0.52941 0.06564,0 0.16011,-0.10524 0.209947,-0.23386 z m 9.44309,-2.57247 -0.121388,-0.60136 -0.01318,0.66817 c -0.0072,0.3675 0.03127,0.90872 0.08558,1.20272 l 0.09876,0.53454 0.0358,-0.60136 c 0.01969,-0.33075 -0.01881,-0.87197 -0.08558,-1.20271 z"
         id="path2632" />
      <path
         id="lpe_path-effect2634"
         style="opacity:0.6;fill:#ffffff;fill-opacity:1;stroke:none;stroke-width:4.04061"
         class="powerclip"
         d="m 19.88431,148.1792 h 69.051384 v 69.05127 H 19.88431 Z m 37.82545,41.76049 -1e-5,-3.4e-4 c 0.537216,0.26473 0.428673,0.26098 0.972889,0.0336 0.376515,-0.15733 0.469402,-0.27894 0.535842,-0.70159 0.0442,-0.2812 0.106979,-0.67945 0.139499,-0.88501 0.153302,-0.96896 -0.432525,-4.64791 -1.06821,-6.70825 l -0.323003,-1.04689 0.265067,-1.11607 c 0.293357,-1.23518 1.108901,-3.32864 1.669161,-4.28466 0.49857,-0.85074 1.34675,-1.74347 1.947804,-2.0501 0.641332,-0.3268 1.585154,-0.32739 2.224919,-0.001 1.17167,0.59774 2.268455,2.23836 3.045928,4.55623 0.458458,1.36679 0.474394,2.038 0.09043,3.80859 -0.549391,2.53345 -0.746133,6.00005 -0.397914,7.01132 0.08773,0.25476 0.319272,0.55261 0.514553,0.66188 0.784315,0.43887 1.393156,-0.3809 1.774005,-2.38858 0.248372,-1.30927 0.276955,-4.20641 0.05833,-5.91118 -0.14623,-1.14023 -0.13915,-1.21232 0.214225,-2.18121 0.200999,-0.5511 0.591238,-1.34752 0.867196,-1.76981 1.120119,-1.71404 1.376952,-1.78641 5.952159,-1.67614 3.648938,0.088 3.808426,0.0639 3.808426,-0.57493 0,-0.61276 -0.358669,-0.68475 -3.81477,-0.76595 -3.577757,-0.084 -4.400902,0.0103 -5.449171,0.62465 -0.667165,0.39099 -1.530268,1.38087 -1.990355,2.28272 L 68.469726,177.4 68.272815,176.93304 c -1.213165,-2.87693 -2.257959,-4.22292 -3.859818,-4.97252 -0.723078,-0.33805 -0.984846,-0.39445 -1.625764,-0.34805 -1.532544,0.11086 -2.963686,1.20981 -4.097192,3.14618 -0.531069,0.90723 -0.772687,1.45128 -1.410674,3.17643 l -0.1479,0.39993 -0.442393,-1.00128 c -0.975607,-2.20811 -2.141871,-3.75608 -3.224909,-4.28037 -0.878504,-0.42527 -2.000755,-0.33118 -2.693662,0.22585 -0.740156,0.59502 -1.436563,1.55846 -2.136312,2.95546 -0.341214,0.68122 -0.66277,1.1924 -0.71456,1.1359 -0.0518,-0.0565 -0.312621,-0.61201 -0.579612,-1.23453 -1.263304,-2.94552 -2.94327,-5.32381 -4.484222,-6.34824 -1.029806,-0.68461 -1.56673,-0.8639 -2.602299,-0.8689 -1.315582,-0.006 -2.708486,1.04785 -3.434545,2.5994 -0.328118,0.70117 -0.864855,2.61737 -1.133235,4.04575 -0.05607,0.29867 -0.07424,0.30067 -2.43483,0.30067 -3.262723,0 -4.431946,0.24679 -4.431946,0.93545 0,0.12421 0.11276,0.32789 0.250579,0.45261 0.217398,0.19671 0.363379,0.20843 1.102487,0.0885 0.468548,-0.076 2.006166,-0.13871 3.416924,-0.13924 3.270372,-0.001 3.12936,0.0866 3.591518,-2.23916 0.178644,-0.89902 0.486206,-2.03775 0.683474,-2.53052 0.457097,-1.1418 1.360501,-2.11725 2.085449,-2.25175 1.198679,-0.2224 2.629024,0.67913 3.991774,2.51597 0.880475,1.18678 2.397588,4.1815 3.000245,5.92236 l 0.375198,1.08382 -0.261882,1.32161 c -0.205236,1.03571 -0.260396,1.8564 -0.255196,3.79384 0.0061,2.24776 0.03428,2.54208 0.310552,3.24138 0.332888,0.84259 0.955889,1.43584 1.50785,1.43584 0.466725,0 1.000974,-0.61983 1.19162,-1.38251 0.331253,-1.32518 -0.02872,-4.5697 -0.821211,-7.40169 l -0.270476,-0.96656 0.277593,-0.9321 c 0.703723,-2.36298 2.383396,-4.81877 3.295862,-4.81877 0.592701,0 1.263327,0.58261 2.083638,1.81018 0.789779,1.18187 2.149425,4.30463 2.149954,4.93837 2.33e-4,0.2205 -0.06817,1.23739 -0.151987,2.25976 -0.10345,1.26161 -0.11155,2.2529 -0.02524,3.08529 0.256193,2.47063 0.614444,3.48384 1.362093,3.85229 z m -9.318127,-1.61356 c 0.277574,-0.71642 0.308573,-1.53445 0.120269,-3.17383 -0.109747,-0.95549 -0.255797,-1.79438 -0.324546,-1.8642 -0.213162,-0.21649 -0.151924,3.13544 0.0708,3.8755 0.171984,0.57147 0.171984,0.67694 0,0.86698 -0.218189,0.2411 -0.259832,0.52941 -0.07647,0.52941 0.06564,0 0.16011,-0.10524 0.209947,-0.23386 z m 9.44309,-2.57247 -0.121388,-0.60136 -0.01318,0.66817 c -0.0072,0.3675 0.03127,0.90872 0.08558,1.20272 l 0.09876,0.53454 0.0358,-0.60136 c 0.01969,-0.33075 -0.01881,-0.87197 -0.08558,-1.20271 z" />
    </clipPath>
  </defs>
  <sodipodi:namedview
     id="base"
     pagecolor="#ffffff"
     bordercolor="#666666"
     borderopacity="1.0"
     inkscape:pageopacity="0.0"
     inkscape:pageshadow="2"
     inkscape:zoom="0.24748738"
     inkscape:cx="568.76519"
     inkscape:cy="292.40495"
     inkscape:document-units="mm"
     inkscape:current-layer="layer1"
     inkscape:document-rotation="0"
     showgrid="false"
     units="px"
     borderlayer="true"
     inkscape:showpageshadow="false"
     inkscape:pagecheckerboard="true"
     inkscape:snap-global="false"
     inkscape:window-width="1366"
     inkscape:window-height="704"
     inkscape:window-x="0"
     inkscape:window-y="27"
     inkscape:window-maximized="1" />
  <metadata
     id="metadata5">
    <rdf:RDF>
      <cc:Work
         rdf:about="">
        <dc:format>image/svg+xml</dc:format>
        <dc:type
           rdf:resource="http://purl.org/dc/dcmitype/StillImage" />
        <dc:title />
      </cc:Work>
    </rdf:RDF>
  </metadata>
  <g
     inkscape:label="Layer 1"
     inkscape:groupmode="layer"
     id="layer1"
     transform="translate(-9.7737005,-121.09718)">
    <g
       id="g1827"
       transform="matrix(0.31121368,0,0,0.31121368,62.466025,24.266327)"
       style="fill:#333333;fill-opacity:1;stroke-width:0.9993134;stroke-miterlimit:4;stroke-dasharray:none;stroke:none">
      <path
         style="fill:#333333;stroke-width:0.9993134;fill-opacity:1;stroke-miterlimit:4;stroke-dasharray:none;stroke:none"
         id="path1481"
         d="m -21.694506,177.17527 c 5.261408,-0.9315 10.63878,-0.73587 15.9573066,-0.63695 2.7017963,0.0995 5.30315876,0.55668 6.8297134,-2.32256 0.3405086,-0.64222 0.8687135,-4.77755 0.9458964,-5.31279 1.0474327,-5.12857 3.4413226,-15.07001 10.3163466,-15.05787 1.21075,0.003 2.334277,0.64409 3.501409,0.96614 1.367149,1.03866 2.896899,1.89247 4.101434,3.116 7.604734,7.7246 12.967593,21.52432 15.794942,31.80072 0.771642,2.80458 1.254988,5.68062 1.882474,8.52093 0.175287,3.7556 2.201162,10.6317 -0.347278,14.27797 -0.144504,0.20677 -0.344871,-0.48847 -0.239724,-0.71777 0.223857,-0.48814 1.070948,-0.63551 1.106055,-1.17137 0.06731,-1.02676 -0.55643,-1.98127 -0.834633,-2.9719 -0.15315,-1.82985 -0.44143,-3.65339 -0.459444,-5.48955 -0.09476,-9.65783 2.111829,-20.35152 6.687921,-28.91089 0.869783,-1.62689 2.067521,-3.05591 3.101266,-4.58386 1.002122,-0.79009 1.812994,-1.9182 3.006365,-2.37024 1.656261,-0.62737 3.964998,1.37717 4.771875,2.29259 4.719895,5.35465 7.043575,12.27109 9.553484,18.79237 2.257559,7.08325 4.187461,14.35951 4.601949,21.81987 -0.03413,1.45192 -0.06825,2.90384 -0.102271,4.35577 -0.214169,0.64641 -0.597504,1.25977 -0.642537,1.93927 -0.03379,0.51143 0.405097,-0.94167 0.607644,-1.41251 0.348253,-0.31538 1.029929,-0.47656 1.044752,-0.94618 0.03876,-1.22909 -0.681242,-2.36744 -0.902066,-3.57717 -0.345411,-1.89229 -0.674976,-3.79587 -0.794197,-5.7157 -0.29465,-4.74504 0.04533,-10.36881 0.82099,-15.03142 0.432643,-2.60097 1.169003,-5.14221 1.753519,-7.71329 2.143311,-6.00274 5.745131,-16.60012 13.05948,-18.32085 2.886377,-0.67903 4.282096,0.69286 6.638411,1.98063 1.09776,1.24663 2.387955,2.34722 3.293262,3.73995 5.283369,8.12778 7.292991,19.11283 7.422931,28.65007 0.0283,2.09062 -0.19577,4.17703 -0.29367,6.26556 -0.47469,2.88159 -0.610814,5.07071 -1.711357,7.70386 -0.150941,0.36118 -1.089774,1.02126 -0.707372,0.93745 0.784337,-0.17187 1.377163,-0.82605 2.067839,-1.23559 1.92928,-1.14401 0.93707,-0.11843 0.79165,-4.03614 0.26187,-9.07398 1.58825,-18.29976 5.07851,-26.74296 0.54232,-1.31189 1.23617,-2.55589 1.85421,-3.83382 1.29372,-1.83101 2.11662,-3.45456 4.06807,-4.65123 3.31828,-2.03484 9.03546,-1.24641 12.68576,-1.08926 4.22981,0.24564 8.46387,0.2913 12.69906,0.28946 3.34997,-0.003 3.34696,-4.73965 -0.004,-4.73751 v 0 c -4.16754,0.004 -8.3339,-0.043 -12.49612,-0.28527 -4.0721,-0.16891 -8.47268,-0.66125 -12.44208,0.60822 -4.13332,1.32188 -6.63507,4.19396 -8.78301,7.81634 -0.68269,1.4333 -1.44669,2.83061 -2.04803,4.29991 -3.693595,9.02459 -5.115313,18.86581 -5.345322,28.55559 0.115065,1.99804 -0.190624,6.82847 2.210565,8.21713 5.402287,3.12426 6.543967,-9.79976 6.813497,-11.60553 0.0959,-2.26485 0.32819,-4.52802 0.28761,-6.7945 -0.18161,-10.1477 -2.65836,-23.19328 -8.702387,-31.58139 -1.313329,-1.82267 -3.162935,-3.19118 -4.744391,-4.78675 -1.793052,-0.74364 -3.465141,-1.90747 -5.379135,-2.23089 -8.944393,-1.51136 -15.000839,7.3103 -18.162355,14.25513 -1.113692,2.44643 -1.849605,5.0478 -2.774433,7.5717 -0.614527,2.75406 -1.390558,5.47702 -1.843638,8.26221 -0.82323,5.06075 -1.157094,11.0589 -0.798725,16.19472 0.138925,1.99101 1.145166,9.35898 2.555428,11.40905 0.885848,1.28777 2.51084,1.86229 3.766263,2.79342 0.98808,-0.63702 2.260468,-0.96935 2.964244,-1.91104 1.143714,-1.53033 0.967221,-6.99882 0.900168,-8.13641 -0.463568,-7.86419 -2.491404,-15.53559 -4.891363,-22.99934 -2.887103,-7.4257 -9.829665,-28.47306 -21.771717,-23.01905 -1.570845,0.71742 -2.613779,2.25771 -3.920696,3.38655 -1.169924,1.77881 -2.516875,3.45307 -3.509785,5.33646 -4.780363,9.06745 -7.327779,21.01931 -7.052797,31.23961 0.05954,2.21327 0.47006,4.40315 0.705094,6.60474 0.610915,1.54197 0.730426,3.38661 1.83272,4.6259 2.50764,2.8192 5.012929,3.2348 7.088329,0.19875 1.48164,-2.16751 1.474372,-7.25973 1.367138,-9.34897 -0.12884,-2.51038 -0.585234,-4.99315 -0.877862,-7.48972 -0.667647,-2.98722 -1.185075,-6.01202 -2.002984,-8.96164 -1.749303,-6.30862 -4.351166,-13.31881 -7.265057,-19.18114 -2.564411,-5.15921 -5.966101,-11.06874 -10.327287,-15.03918 -1.754347,-1.59716 -3.973976,-2.59268 -5.960963,-3.88903 -1.990586,-0.25191 -3.979253,-0.99207 -5.971756,-0.75578 -1.7866837,0.21188 -3.5007827,1.04731 -4.9907514,2.05584 -5.46989774,3.70248 -7.1295499,10.78236 -8.391626,16.7775 -0.1316445,0.91524 -0.2885565,1.8272 -0.3949186,2.74574 -0.038728,0.33436 -0.3010148,0.7966 -0.039861,1.00897 0.2498893,0.20322 0.6036592,-0.23685 0.9208811,-0.29256 0.069801,-0.0125 -0.07382,0.14808 -0.1442406,0.15614 -0.4877079,0.056 -3.200358,-0.0407 -3.3404627,-0.0444 -6.0117378,-0.1113 -12.1727948,-0.42418 -18.0450178,1.07894 -3.036826,1.41411 -1.03698,5.70883 1.999849,4.29473 z"
         clip-path="url(#clipPath1803)" />
      <path
         style="fill:#333333;stroke-width:0.9993134;fill-opacity:1;stroke-miterlimit:4;stroke-dasharray:none;stroke:none"
         d="m 37.122947,212.6621 c -0.04123,-0.0412 -0.09242,-0.15084 -0.1331,-0.28498 -0.03185,-0.10504 -0.03689,-0.14663 -0.03798,-0.31359 -0.0012,-0.18726 -1.42e-4,-0.19474 0.03977,-0.27499 0.06813,-0.13698 0.27205,-0.32789 0.557071,-0.52153 0.307745,-0.20908 0.447147,-0.31747 0.5348,-0.41581 0.0386,-0.0433 0.07017,-0.0744 0.07017,-0.069 0,0.0249 -0.177524,0.49104 -0.257416,0.67592 -0.158423,0.3666 -0.38444,0.78707 -0.580395,1.07975 -0.106367,0.15888 -0.137945,0.17921 -0.19293,0.12422 z"
         id="path1503" />
    </g>
    <g
       id="g2644"
       transform="matrix(1.5556222,0,0,1.5556222,-28.936884,-116.5235)">
      <path
         id="rect1861"
         style="opacity:0.5;fill:#333333;fill-opacity:1;stroke:none;stroke-width:8.61568;filter:url(#filter2597)"
         d="m 31.451916,158.42389 h 45.916167 c 0.732896,0 1.322917,0.59002 1.322917,1.32292 v 45.91605 c 0,0.7329 -0.590021,1.32292 -1.322917,1.32292 H 31.451916 c -0.732895,0 -1.322916,-0.59002 -1.322916,-1.32292 v -45.91605 c 0,-0.7329 0.590021,-1.32292 1.322916,-1.32292 z"
         clip-path="url(#clipPath2630)"
         inkscape:original-d="m 31.451916,158.42389 h 45.916167 c 0.732896,0 1.322917,0.59002 1.322917,1.32292 v 45.91605 c 0,0.7329 -0.590021,1.32292 -1.322917,1.32292 H 31.451916 c -0.732895,0 -1.322916,-0.59002 -1.322916,-1.32292 v -45.91605 c 0,-0.7329 0.590021,-1.32292 1.322916,-1.32292 z"
         inkscape:path-effect="#path-effect2634" />
      <path
         id="rect1835"
         style="fill:url(#linearGradient1855);fill-opacity:1;stroke:none;stroke-width:32.5632"
         d="m 221.81445,25.529297 c -2.76999,0 -5,2.230022 -5,5 v 73.498043 c 2.65467,-0.4047 6.48923,-0.58007 11.79883,-0.58007 8.92193,0 8.99119,-0.006 9.20313,-1.13477 1.01435,-5.398602 3.04306,-12.640924 4.2832,-15.291016 2.74416,-5.864126 8.00819,-9.850209 12.98047,-9.826172 3.91396,0.0189 5.94376,0.697654 9.83594,3.285157 5.82407,3.871861 12.17257,12.859513 16.94726,23.992191 1.0091,2.35283 1.99565,4.45258 2.19141,4.66601 0.19574,0.21355 1.41154,-1.71828 2.70117,-4.29297 2.64472,-5.279997 5.27677,-8.921024 8.07422,-11.169919 2.61886,-2.10531 6.85936,-2.460835 10.17969,-0.853515 4.09337,1.981568 8.50212,7.832124 12.18945,16.177734 l 1.67187,3.78516 0.5586,-1.51172 c 2.41129,-6.52025 3.32484,-8.57696 5.33203,-12.005862 4.28412,-7.318564 9.69209,-11.471626 15.48437,-11.890625 2.42237,-0.17537 3.41165,0.03678 6.14453,1.314453 6.05428,2.833134 10.00466,7.921486 14.58985,18.794924 l 0.74414,1.76367 1.04687,-2.05078 c 1.73892,-3.40857 4.99992,-7.15115 7.52149,-8.628908 3.96196,-2.321839 7.07347,-2.678921 20.5957,-2.361328 4.36084,0.102457 7.33033,0.208819 9.4668,0.38086 V 30.529297 c 0,-2.769978 -2.23,-5 -5,-5 z m 33.85352,56.318359 c -0.59146,-0.02628 -1.17198,0.01212 -1.73828,0.117188 -2.73996,0.508346 -6.15326,4.194301 -7.88086,8.509765 -0.74558,1.862438 -1.9088,6.166583 -2.58399,9.564451 -1.74673,8.79039 -1.21376,8.45802 -13.57422,8.46289 -5.332,0.002 -11.14316,0.23995 -12.91406,0.52735 -0.0661,0.0107 -0.0985,0.0133 -0.16211,0.0234 v 95.01758 c 0,2.76998 2.23001,5 5,5 h 173.54102 c 2.77,0 5,-2.23002 5,-5 V 101.39453 c -2.12257,0.0406 -5.06486,-0.0116 -9.44336,-0.11719 -17.29212,-0.41676 -18.26257,-0.14232 -22.49609,6.33594 -1.043,1.59606 -2.51767,4.60656 -3.27735,6.68945 -1.33559,3.66195 -1.36127,3.93266 -0.80859,8.24219 0.8263,6.44323 0.71802,17.39338 -0.2207,22.3418 -1.43943,7.58808 -3.74074,10.68606 -6.70508,9.02734 -0.73807,-0.41299 -1.61376,-1.53713 -1.94532,-2.5 -1.3161,-3.82212 -0.57253,-16.92475 1.50391,-26.5 1.4512,-6.69199 1.39095,-9.22871 -0.3418,-14.39453 -2.93848,-8.76045 -7.08336,-14.961527 -11.51171,-17.220702 -2.41801,-1.2336 -5.98623,-1.231243 -8.41016,0.0039 -2.2717,1.158917 -5.47697,4.532652 -7.36133,7.748042 -2.11752,3.61331 -5.19984,11.52496 -6.30859,16.19336 l -1.00196,4.21875 1.22071,3.95703 c 2.40259,7.78711 4.61652,21.69131 4.03711,25.35352 -0.12291,0.77692 -0.3603,2.2829 -0.52735,3.3457 -0.25111,1.59742 -0.60038,2.05775 -2.02343,2.65234 -2.05688,0.85939 -1.64732,0.87361 -3.67774,-0.12695 -2.82575,-1.39257 -4.18015,-5.22078 -5.14844,-14.55859 -0.32621,-3.14604 -0.29529,-6.89382 0.0957,-11.66211 0.3168,-3.86408 0.5751,-7.70763 0.57421,-8.54102 -0.002,-2.39524 -5.14,-14.19715 -8.125,-18.66406 -3.10038,-4.639631 -5.63486,-6.841793 -7.875,-6.841793 -3.44869,0 -9.79728,9.281943 -12.45703,18.212883 l -1.04882,3.52344 1.02148,3.65234 c 2.99523,10.70359 4.3555,22.96606 3.10352,27.97461 -0.72056,2.88257 -2.73991,5.22461 -4.50391,5.22461 -2.08615,0 -4.44106,-2.24119 -5.69922,-5.42578 -1.04418,-2.64302 -1.15084,-3.75453 -1.17383,-12.25 -0.0197,-7.32261 0.18915,-10.42535 0.96485,-14.33984 l 0.99023,-4.99414 -1.41797,-4.09766 c -2.27776,-6.57963 -8.01206,-17.897339 -11.33984,-22.382807 -4.50673,-6.074589 -9.2094,-9.442962 -13.34961,-9.626953 z m 29.32617,49.619144 c -0.71808,0.002 -0.47564,11.97588 0.33984,14.68554 0.65003,2.15989 0.65003,2.55909 0,3.27735 -0.82464,0.91124 -0.98208,2 -0.28906,2 0.24809,0 0.60462,-0.39669 0.79297,-0.88281 1.0491,-2.70773 1.16678,-5.80002 0.45508,-11.9961 -0.4148,-3.6113 -0.96672,-6.78103 -1.22656,-7.04492 -0.0252,-0.0256 -0.0491,-0.0391 -0.0723,-0.0391 z m 36.07617,7.08398 -0.0508,2.52539 c -0.0272,1.38898 0.11895,3.43374 0.32422,4.54492 l 0.37305,2.02149 0.13476,-2.27344 c 0.0744,-1.25008 -0.0699,-3.29488 -0.32226,-4.54492 z"
         transform="matrix(0.26458333,0,0,0.26458333,-27.236436,148.49406)" />
    </g>
    <text
       xml:space="preserve"
       style="font-style:normal;font-variant:normal;font-weight:600;font-stretch:normal;font-size:95.4898px;line-height:1.25;font-family:MuseoModerno;-inkscape-font-specification:'MuseoModerno Semi-Bold';fill:#f7f7f7;fill-opacity:1;stroke:none;stroke-width:2.38725;"
       x="104.27328"
       y="192.0461"
       id="text2666"><tspan
         sodipodi:role="line"
         id="tspan2664"
         x="104.27328"
         y="192.0461"
         style="font-style:normal;font-variant:normal;font-weight:600;font-stretch:normal;font-family:MuseoModerno;-inkscape-font-specification:'MuseoModerno Semi-Bold';fill:#f7f7f7;fill-opacity:1;stroke-width:2.38725;">monica</tspan></text>
  </g>
</svg>
