<?xml version="1.0" encoding="UTF-8" standalone="no"?>
<svg
   xmlns:dc="http://purl.org/dc/elements/1.1/"
   xmlns:cc="http://creativecommons.org/ns#"
   xmlns:rdf="http://www.w3.org/1999/02/22-rdf-syntax-ns#"
   xmlns:svg="http://www.w3.org/2000/svg"
   xmlns="http://www.w3.org/2000/svg"
   xmlns:xlink="http://www.w3.org/1999/xlink"
   xmlns:sodipodi="http://sodipodi.sourceforge.net/DTD/sodipodi-0.dtd"
   xmlns:inkscape="http://www.inkscape.org/namespaces/inkscape"
   width="256"
   height="255.99998"
   viewBox="0 0 67.733334 67.73333"
   version="1.1"
   id="svg8"
   inkscape:version="1.0.2 (e86c870879, 2021-01-15)"
   sodipodi:docname="monica-icon.svg"
   inkscape:export-filename="/home/lucas/Documentos/Monica/assets/monica-icon.png"
   inkscape:export-xdpi="96"
   inkscape:export-ydpi="96">
  <defs
     id="defs2">
    <inkscape:path-effect
       effect="powerclip"
       id="path-effect2634"
       is_visible="true"
       lpeversion="1"
       inverse="true"
       flatten="false"
       hide_clip="false"
       message="Use fill-rule evenodd on &lt;b&gt;fill and stroke&lt;/b&gt; dialog if no flatten result after convert clip to paths." />
    <linearGradient
       inkscape:collect="always"
       id="linearGradient1841">
      <stop
         style="stop-color:#ff8801;stop-opacity:1"
         offset="0"
         id="stop1837" />
      <stop
         style="stop-color:#fe500e;stop-opacity:1"
         offset="1"
         id="stop1839" />
    </linearGradient>
    <clipPath
       clipPathUnits="userSpaceOnUse"
       id="clipPath1803">
      <path
         id="path1805"
         style="fill:#ff0000;fill-opacity:1;fill-rule:nonzero;stroke:none;stroke-width:0.264583"
         d="m -25.204519,149.34827 v 69.38543 h 93.885743 c -0.07411,-0.0235 -0.157562,-0.0491 -0.206706,-0.10645 -0.0164,-0.0192 -0.02924,-0.041 -0.04393,-0.0615 -0.01429,-0.0214 -0.0717,-0.10674 -0.08733,-0.13126 -0.0011,-0.002 -0.0028,-0.006 -0.0041,-0.008 -0.04027,-0.021 -0.08538,-0.0481 -0.111104,-0.0775 -0.01198,-0.0137 -0.0186,-0.0314 -0.02791,-0.047 -2.65e-4,-7.9e-4 -5.29e-4,-0.002 -0.0011,-0.003 -0.02864,-0.0125 -0.05131,-0.0342 -0.07183,-0.0584 -0.02994,-0.0373 -0.05949,-0.055 -0.0078,-0.12144 0.02032,-0.0261 0.08131,-5.3e-4 0.103354,0.005 0.0058,0.001 0.0117,0.002 0.01757,0.004 -7.94e-4,-0.0113 -0.0011,-0.0228 -0.0036,-0.0341 -2.65e-4,-0.002 -0.0013,-0.006 -0.0026,-0.0109 -0.01492,-0.009 -0.01503,-0.0133 -0.0031,-0.015 -1.3e-5,-1.8e-4 -5.29e-4,-0.002 -5.29e-4,-0.002 0.0093,-0.0145 0.02101,-0.0276 0.03204,-0.0408 0.0019,-0.009 0.01188,-0.0155 0.0186,-0.0233 -5.29e-4,-1e-4 -0.0011,-2.6e-4 -0.0016,-5.3e-4 -0.0044,-0.002 -0.0084,-0.004 -0.01241,-0.007 -0.0052,-7.9e-4 -0.01037,-0.002 -0.01551,-0.003 -0.0013,-5.2e-4 -0.0019,-0.001 -0.0031,-0.002 -0.0141,-5.3e-4 -0.02799,-2.7e-4 -0.04237,-0.008 -0.0011,-5.3e-4 -0.0016,-0.002 -0.0031,-0.003 -0.0042,-0.003 -0.0083,-0.005 -0.01241,-0.008 -0.0016,-2.4e-4 -0.0038,-7.9e-4 -0.0052,-0.001 -0.0029,-2e-4 -0.005,-0.003 -0.0072,-0.005 -0.0013,-0.001 0.0078,0.003 0.0047,-0.002 -0.0094,-0.002 -0.01849,-0.003 -0.0279,-0.005 -0.03609,-0.006 -0.05442,-0.0215 -0.06511,-0.0393 -0.0026,-0.002 -0.0084,-0.003 -0.0093,-0.005 -5.29e-4,-7.9e-4 0.0016,-7.9e-4 0.0026,-0.001 -0.04868,-0.009 -0.0919,-0.0235 -0.132807,-0.0517 -0.02119,-0.005 -0.04297,-0.008 -0.06356,-0.0155 -0.03243,-0.0116 -0.05481,-0.0358 -0.08682,-0.047 -0.02021,-0.006 -0.03246,-0.01 -0.05323,-0.0186 -7.94e-4,-2.7e-4 -7.94e-4,-0.002 -0.0016,-0.002 -0.01453,-0.007 -0.0281,-0.0133 -0.04341,-0.0191 -0.0173,-0.01 -0.03069,-0.0174 -0.04393,-0.03 -0.0032,-0.002 -0.0041,-0.002 -0.0062,-0.003 -0.05861,-0.0311 0.05165,0.0266 -0.04392,-0.0186 -0.01185,-0.006 -0.02297,-0.0122 -0.03411,-0.0191 l -5.3e-4,-5.3e-4 c -7.93e-4,-8e-5 -0.0019,8e-5 -0.0026,0 -0.01852,-0.006 -0.02585,-0.007 -0.04599,-0.0186 -0.0072,-0.004 -0.01273,-0.0104 -0.01963,-0.015 -0.03687,-0.0246 -0.07689,-0.0442 -0.114721,-0.0672 -0.09994,-0.0607 -0.04701,-0.16562 0.05323,-0.10542 0.04076,0.0245 0.08334,0.0459 0.122992,0.0723 0.06729,0.0447 0.01109,0.0149 0.03617,0.0212 0.03506,0.01 0.007,-0.002 0.05271,0.0279 0.0011,8e-4 -7.94e-4,-0.003 5.29e-4,-0.003 0.0071,0.001 0.01397,0.004 0.02066,0.007 0.0095,0.004 0.0186,0.009 0.02791,0.0134 0.02543,0.0108 0.0075,10e-4 0.04289,0.0357 0.0011,0.001 -0.0011,-0.003 -0.0021,-0.004 -0.0024,-0.003 -0.01119,-0.008 -0.0078,-0.008 0.007,0.001 0.0123,0.007 0.0186,0.0103 0.01979,0.004 0.03619,0.018 0.05426,0.0264 7.94e-4,5.3e-4 2.9e-5,-0.003 0.0011,-0.003 0.0082,0.002 0.01577,0.005 0.02376,0.008 0.03953,0.006 0.06468,0.0432 0.101803,0.0532 0.0056,0.002 0.01127,5.3e-4 0.01707,0.002 0.0084,0.002 0.01701,0.004 0.02532,0.006 0.02905,0.006 0.05032,0.0279 0.07648,0.0398 0.0034,0.002 0.0078,0.001 0.01138,0.002 0.03772,0.009 0.0089,0.004 0.03514,0.008 0.0091,0.003 0.01868,0.006 0.02739,0.01 0.01191,0.006 0.03015,0.0208 0.04238,0.0274 0.006,0.003 0.02677,0.007 0.02997,0.008 0.0041,0.001 0.0079,0.003 0.01188,0.005 -1.11e-4,5.2e-4 0.008,0.006 0.0083,0.007 0.0039,0.002 0.008,0.003 0.01188,0.005 0.0052,0.003 0.0097,0.006 0.01447,0.0109 -0.0036,-2.6e-4 -0.0054,2.2e-4 -0.01085,-5.3e-4 5.29e-4,7.9e-4 0.0034,0.003 0.0041,0.004 0.0061,9e-5 0.01172,0.001 0.01757,0.002 -0.0062,-0.004 0.0055,0.004 0.0031,0.003 -7.93e-4,-8e-4 -0.0024,-0.001 0.0021,-0.002 0.02445,-0.003 0.02492,2.4e-4 0.05116,0.0139 7.94e-4,2.7e-4 0.0019,5.3e-4 0.0026,0.001 0.0026,8e-4 0.0033,8e-4 0.0047,0.002 5.3e-4,2.6e-4 0.0011,7.9e-4 0.0016,0.001 0.0035,0.002 0.0069,0.003 0.01035,0.005 0.0019,2.4e-4 0.0038,2.7e-4 0.0057,0.001 7.93e-4,2.7e-4 0.0016,8e-4 0.0026,0.001 -0.0016,-7.9e-4 0.0027,0.003 -0.0031,-0.002 -0.003,-0.002 0.0081,-0.002 0.01188,-0.002 0.03051,0.004 0.03188,0.005 0.05633,0.0119 0.02164,0.005 0.01611,-8e-4 0.04082,0.016 0.0056,10e-4 0.01175,0.002 0.02326,0.005 0.02156,0.006 0.03342,0.0162 0.04496,0.0264 0.03851,0.009 0.07767,0.0165 0.117306,0.0196 0.06823,0.007 0.1344,0.0273 0.20257,0.0346 0.08786,-2e-4 0.173956,0.0177 0.260451,0.031 0.05062,0.009 0.101565,0.002 0.152445,0.004 0.0087,1.9e-4 0.106889,0.007 0.116787,0.009 0.01844,0.002 0.03649,0.007 0.05478,0.0108 0.06738,0.0157 0.136001,0.004 0.204121,0.003 0.05629,-0.002 0.112723,0.004 0.168981,0.002 0.03654,-0.002 0.07343,-0.009 0.108522,-0.0191 0.01601,-0.003 0.0314,-0.007 0.04754,-0.008 0.02013,-0.002 0.04089,1.5e-4 0.06098,-0.003 7.93e-4,-1.1e-4 0.08254,-0.0199 0.0832,-0.0202 0.04049,-0.007 0.02193,-0.003 0.05478,-0.0109 0.07335,-0.0201 0.148593,-0.0339 0.223242,-0.0481 0.02305,-0.004 0.04649,-0.007 0.06925,-0.0129 0.01511,-0.004 0.02927,-0.0103 0.04392,-0.0155 0.01267,-0.005 0.02508,-0.0101 0.03772,-0.0155 0.03136,-0.0133 0.06153,-0.0242 0.0956,-0.0284 0.06901,-0.009 -0.0016,0.004 0.05478,-0.007 0.04427,-0.0231 0.09443,-0.0269 0.141594,-0.0403 0.01056,-0.003 0.02027,-0.008 0.03049,-0.0119 0.02805,-0.006 0.05829,-0.007 0.08527,-0.0176 0.01336,-0.005 0.02601,-0.0126 0.03927,-0.0181 0.05237,-0.0123 -0.0088,6e-5 0.05633,-0.002 0.0056,-2e-4 -0.01283,8e-4 -0.01601,-0.004 -0.0021,-0.003 0.0059,-0.005 0.0093,-0.006 0.01453,-0.007 0.02972,-0.0118 0.04444,-0.0181 0.03912,-0.005 0.07295,-0.0234 0.109037,-0.0377 0.02925,-0.0116 0.05895,-0.0219 0.08837,-0.0331 0.02474,-0.0116 0.05065,-0.0216 0.07545,-0.0331 0.0069,-0.003 0.01307,-0.007 0.02016,-0.01 0.0377,-0.0111 0.02283,-0.006 0.04548,-0.0145 0.0035,-0.002 0.0078,-0.003 0.01085,-0.006 0.0016,-0.001 0.0019,-0.004 0.0036,-0.006 0.02841,-0.0229 0.06187,-0.0347 0.0956,-0.0475 0.03618,-0.0148 0.07595,-0.0216 0.109035,-0.0434 l 0.0093,-0.008 c -5.29e-4,-2.7e-4 -0.0013,-5.3e-4 -0.0011,-10e-4 0.0063,-0.006 0.01344,-0.0121 0.02016,-0.0181 0.03175,-0.0212 0.06939,-0.0277 0.103352,-0.0439 0.007,-0.003 0.01953,-0.0144 0.02585,-0.0181 0.0071,-0.004 0.01439,-0.008 0.0217,-0.0114 0.01701,-0.007 0.03662,-0.0111 0.05116,-0.0233 0.0226,-0.019 -0.03369,0.0151 0.02479,-0.0217 0.009,-0.006 0.01892,-0.0101 0.02842,-0.015 0.02299,-0.0162 0.04285,-0.0367 0.06718,-0.0512 0.0075,-0.004 0.0268,-0.0136 0.03772,-0.0186 0.02661,-0.0121 0.04982,-0.0145 0.06769,-0.0103 v -0.002 c 0.05365,0.0122 0.06082,0.0822 -0.01913,0.11834 -0.0042,0.002 -0.0081,0.004 -0.01241,0.006 -0.0016,5.3e-4 -0.0033,-7.9e-4 -0.0047,0 -0.03158,0.0191 -0.05563,0.0488 -0.0894,0.0646 -0.0071,-0.004 -0.0021,-0.002 -0.01601,0.009 -0.02768,0.0227 -0.05048,0.0395 -0.08578,0.0491 -0.01265,0.002 7.94e-4,-2.6e-4 -0.02479,0.0155 -0.03074,0.019 -0.06519,0.0326 -0.100254,0.0413 -0.01659,0.0101 0.01127,-0.007 -0.02429,0.0238 -0.0413,0.0359 -0.09707,0.0482 -0.146762,0.0672 -0.0098,0.004 -0.01955,0.008 -0.02946,0.0114 -0.0038,10e-4 -0.0083,2.6e-4 -0.01188,0.003 -0.01577,0.008 -0.03191,0.0243 -0.04548,0.0331 -0.0078,0.005 -0.01651,0.008 -0.02479,0.0124 -0.0075,0.003 -0.01463,0.006 -0.02222,0.008 -0.0037,10e-4 -0.0078,8e-4 -0.01138,0.002 -0.0086,0.003 -0.01656,0.008 -0.02479,0.0119 -0.02666,0.0123 -0.0545,0.0223 -0.08113,0.0346 -0.02777,0.0105 -0.0556,0.02 -0.0832,0.031 -0.03581,0.0142 -0.0705,0.0334 -0.109556,0.0372 -0.01484,0.006 -0.06173,0.0284 -0.07389,0.031 -0.0081,0.002 -0.01648,0.002 -0.02479,0.002 -0.01127,0.005 -0.02238,0.01 -0.03359,0.0145 0.01662,0.0676 0.01929,0.078 -0.02532,0.0915 0,0 -5.29e-4,0 -5.29e-4,0 -0.0013,0.001 -0.0027,0.002 -0.0041,0.003 0.0034,-0.01 -2.65e-4,-0.002 -0.01601,0.009 -4.5e-5,5e-5 -0.0013,7.9e-4 -0.0011,5.2e-4 -0.0042,0.003 -0.009,0.007 -0.01344,0.0104 -7.1e-5,5.3e-4 5.3e-5,0.002 0,0.002 -0.0016,0.0121 -5.29e-4,0.0245 0,0.0367 -0.0024,0.0124 -0.0037,0.0251 -0.0072,0.0372 -0.01172,0.0407 -0.02318,0.0482 -0.04341,0.091 -0.009,0.019 -0.0163,0.039 -0.02429,0.0584 -0.01169,0.0275 -0.0223,0.0552 -0.03514,0.0822 -0.01384,0.0291 -0.02998,0.0572 -0.04496,0.0858 -0.02825,0.0437 -0.0793,0.12422 -0.109553,0.16536 -0.01863,0.0253 -0.03948,0.0492 -0.05891,0.0739 -0.01976,0.0252 -0.0366,0.0471 -0.05581,0.0698 H 139.82613 V 149.3479 Z m 93.435642,68.72035 c 1.19e-4,0.002 0.0013,0.008 0.0031,0.015 0.0032,0.002 0.0033,0.003 0.0083,0.005 0.01799,0.008 0.03575,0.0165 0.05374,0.0248 0.0065,-0.009 0.01331,-0.018 0.01963,-0.0274 -0.01865,-0.004 -0.03202,-0.01 -0.04134,-0.0181 -0.01683,-2.6e-4 -0.03404,-7.9e-4 -0.04341,5.3e-4 z m 0.03617,-0.18655 c 0.0066,0.006 0.0082,0.008 0.01291,0.0109 0.0024,0.002 -0.0034,-0.005 -0.0057,-0.007 -0.0024,-0.002 -0.0047,-0.003 -0.0072,-0.004 z m 2.382801,0.12144 c -0.0067,5.3e-4 -0.01331,0.002 -0.02016,0.003 0.0073,-5.3e-4 0.01474,-0.001 0.02119,-0.001 -6.6e-5,-10e-4 -7.93e-4,-5.3e-4 -0.0011,-0.002 z m -2.293917,0.0956 c 0.0011,0.008 0.0026,0.0139 0.0041,0.0413 2.64e-4,0.008 7.93e-4,0.0162 0.0016,0.0243 0.0045,0.003 0.0087,0.006 0.01291,0.009 0.0031,-8e-4 0.0066,-0.002 0.0098,-0.002 0.0064,-10e-4 0.01273,-10e-4 0.01913,-0.002 2.65e-4,0 0.0019,-1e-5 0.0026,0 0.01125,-0.008 0.02291,-0.0146 0.03462,-0.0217 -0.0032,-0.007 -0.004,-0.0152 -0.0041,-0.0233 -8e-6,-5.3e-4 -5.29e-4,-0.001 -5.29e-4,-0.002 -0.0041,-5.3e-4 -0.0082,-0.002 -0.01241,-0.002 -0.0011,-8e-4 -0.0016,-5.3e-4 -0.0031,-0.002 -0.0048,-0.001 -0.0063,-2.7e-4 -0.0093,-0.001 -0.01908,-0.004 -0.03708,-0.0121 -0.0553,-0.0196 z m 2.424142,0.0134 c -0.01029,0.0119 -0.02006,0.0237 -0.03772,0.0315 -0.04822,0.0222 -0.09757,0.0403 -0.147278,0.0589 -0.0094,0.004 -0.01902,0.007 -0.02842,0.0103 -0.0038,0.001 -0.0082,0.004 -0.01138,0.005 -0.0011,8e-4 -0.0016,0.002 -0.0026,0.003 -0.01656,0.0109 -0.02868,0.008 -0.04341,0.009 -0.01717,0.005 -0.03386,0.0107 -0.05064,0.0165 -0.004,0.001 -0.0074,0.004 -0.01138,0.005 -0.0046,0.002 -0.0084,0.002 -0.01291,0.003 -0.01201,0.005 -0.02498,0.007 -0.03669,0.0124 -0.01482,0.007 -0.02887,0.0155 -0.04341,0.0233 -0.01701,0.009 -0.03371,0.0198 -0.05116,0.0284 -0.01865,0.009 -0.03829,0.0165 -0.05736,0.0248 -0.02614,0.0109 -0.05382,0.016 -0.08061,0.0248 -0.0083,0.003 -0.02056,0.009 -0.02946,0.0108 -0.0094,0.002 -0.01902,7.9e-4 -0.02842,0.002 -0.0047,5.3e-4 0.0097,9e-5 0.01447,0 -0.0016,10e-4 -0.0029,0.003 -0.0047,0.004 -0.007,0.003 -0.03716,0.0151 -0.04496,0.0186 -0.05254,0.0235 -0.105011,0.047 -0.158131,0.0692 -0.02307,0.009 -0.04579,0.0192 -0.06924,0.0274 -0.01897,0.007 -0.03843,0.0119 -0.05788,0.017 0.0016,0.0237 -0.02959,0.0371 -0.04651,0.0537 -0.0122,0.012 -0.02731,0.0215 -0.04082,0.032 -0.06332,0.0493 -0.04412,0.0343 -0.108006,0.0811 -0.0182,0.0136 -0.03689,0.0261 -0.05426,0.0408 -0.01016,0.009 -0.0028,0.003 -0.0083,0.008 h 0.838189 c 0.01297,-0.0106 0.02627,-0.0211 0.03928,-0.0315 0.0097,-0.009 0.01974,-0.0181 0.02894,-0.0279 0.02484,-0.0264 0.04524,-0.0562 0.0677,-0.0847 0.01752,-0.0222 0.03646,-0.0429 0.05323,-0.0656 0.02445,-0.0332 0.07858,-0.11738 0.102835,-0.15451 0.01355,-0.0255 0.02841,-0.0504 0.04083,-0.0765 0.01278,-0.0268 0.02302,-0.0548 0.03462,-0.0822 0.0098,-0.023 0.01873,-0.0466 0.02945,-0.0692 0.0046,-0.01 0.0105,-0.0187 0.01601,-0.0279 z m -2.259809,0.12196 c -0.02286,0.0153 -0.04494,0.0319 -0.06925,0.045 -0.01246,0.003 -0.02513,0.007 -0.03772,0.009 -0.0019,5.3e-4 -2.65e-4,-1.9e-4 -0.0016,0 0.0013,0.009 0.0028,0.0175 0.0036,0.0264 2.01e-4,10e-4 -0.0013,0.003 -0.0011,0.004 0.0013,0.005 0.0061,0.0114 0.01085,0.0196 0.09284,0.0369 0.191368,0.0542 0.290422,0.0682 -0.0033,-0.009 -0.0037,-0.0192 -0.0057,-0.0289 0.0029,-0.01 0.0057,-0.0198 0.0088,-0.0294 -0.02926,-0.0113 -0.05783,-0.0248 -0.08475,-0.0419 -0.01564,-0.009 -0.03118,-0.0179 -0.04651,-0.0269 -0.02719,-0.016 -0.02183,-0.008 -0.05219,-0.031 -0.0043,-0.003 -0.0077,-0.008 -0.01138,-0.0119 -0.0013,-7.9e-4 -0.0024,-0.001 -0.0036,-0.002 z m 0.369485,0.14573 c 0.0024,0.001 0.0048,0.003 0.0072,0.004 0.01781,0.007 0.04561,0.005 0.07183,5.3e-4 -0.02635,-4e-5 -0.05276,-0.003 -0.07906,-0.004 z m -0.06925,0.0207 c -7.94e-4,0.001 -0.0019,0.002 -0.0026,0.003 -5.29e-4,7.9e-4 -0.0011,0.004 -5.29e-4,0.003 0.0011,-0.002 0.0021,-0.004 0.0031,-0.006 z m -0.297141,0.0899 c 7.94e-4,0.001 0.0035,0.005 0.0041,0.006 0.0096,0.0147 0.02588,0.0462 0.04341,0.0594 0.01881,0.0143 0.04147,0.0218 0.06305,0.031 0.01691,-0.023 0.07738,-0.0441 0.09612,-0.0568 -0.0016,-7.9e-4 -0.0019,-0.002 -0.0036,-0.003 -0.06839,-0.01 -0.136099,-0.0217 -0.203089,-0.0372 z m 0.203089,0.0372 c 0.0021,2.6e-4 0.0042,2.2e-4 0.0062,5.3e-4 0.0071,-0.006 0.0029,-0.01 -0.02532,-0.0103 -0.01495,-2.6e-4 0.0032,-2.6e-4 0.01241,0.004 0.0043,0.002 0.0034,0.004 0.0067,0.006 z m 0.0062,5.3e-4 c -5.29e-4,5.3e-4 -0.0019,0.002 -0.0026,0.002 0.01728,0.009 0.02689,0.0137 0.04082,0.0326 0.0054,0.007 0.0104,0.0147 0.0155,0.0222 0.01222,0.0376 0.0146,0.0292 0.07234,0.0341 0.08208,0.007 0.16514,0.005 0.247531,-5.3e-4 0.007,-0.003 0.01371,-0.006 0.02066,-0.009 -0.0078,-0.002 -0.02988,-0.007 -0.03152,-0.007 -0.03245,-0.004 -0.06774,-0.008 -0.07338,-0.01 -0.0085,-0.002 -0.01619,-0.007 -0.02429,-0.0103 -0.02032,0.004 -0.04244,0.0113 -0.05736,-0.001 -0.0058,-0.005 -0.0078,-0.0129 -0.01188,-0.0191 -0.02869,-0.006 0.01214,0.002 -0.05064,-0.0119 -0.04773,-0.009 -0.0966,-0.0153 -0.145211,-0.0222 z m 0.719336,0.11627 c -0.0026,0.001 -0.0052,0.002 -0.0078,0.003 0,0 -5.29e-4,5.3e-4 -5.29e-4,5.3e-4 -0.0013,0.002 -0.0027,0.005 -0.0041,0.007 0.0039,-0.004 0.0084,-0.007 0.01241,-0.0103 z m -0.175183,0.0713 c -0.01159,0.003 -0.02307,0.006 -0.03462,0.009 -0.0354,0.004 -0.04621,0.005 -0.06666,0.008 h 0.09405 c 0.0026,-0.005 0.0053,-0.0113 0.0072,-0.0165 z" />
    </clipPath>
    <linearGradient
       inkscape:collect="always"
       xlink:href="#linearGradient1841"
       id="linearGradient1843"
       x1="28.730103"
       y1="190.32671"
       x2="80.089897"
       y2="168.73289"
       gradientUnits="userSpaceOnUse" />
    <linearGradient
       inkscape:collect="always"
       xlink:href="#linearGradient1841"
       id="linearGradient1855"
       gradientUnits="userSpaceOnUse"
       x1="28.730103"
       y1="190.32671"
       x2="80.089897"
       y2="168.73289"
       gradientTransform="matrix(1.3947836,0,0,1.3947981,-32.249807,-94.775085)" />
    <clipPath
       clipPathUnits="userSpaceOnUse"
       id="clipPath2630">
      <path
         style="display:block;opacity:0.6;fill:#ffffff;fill-opacity:1;stroke:none;stroke-width:4.04061"
         d="m 57.70976,189.93969 c -0.747649,-0.36845 -1.1059,-1.38166 -1.362093,-3.85229 -0.08631,-0.83239 -0.07821,-1.82368 0.02524,-3.08529 0.08382,-1.02237 0.15222,-2.03926 0.151987,-2.25976 -5.29e-4,-0.63374 -1.360175,-3.7565 -2.149954,-4.93837 -0.820311,-1.22757 -1.490937,-1.81018 -2.083638,-1.81018 -0.912466,0 -2.592139,2.45579 -3.295862,4.81877 l -0.277593,0.9321 0.270476,0.96656 c 0.792488,2.83199 1.152464,6.07651 0.821211,7.40169 -0.190646,0.76268 -0.724895,1.38251 -1.19162,1.38251 -0.551961,0 -1.174962,-0.59325 -1.50785,-1.43584 -0.276275,-0.6993 -0.304472,-0.99362 -0.310552,-3.24138 -0.0052,-1.93744 0.04996,-2.75813 0.255196,-3.79384 l 0.261882,-1.32161 -0.375198,-1.08382 c -0.602657,-1.74086 -2.11977,-4.73558 -3.000245,-5.92236 -1.36275,-1.83684 -2.793095,-2.73837 -3.991774,-2.51597 -0.724948,0.1345 -1.628352,1.10995 -2.085449,2.25175 -0.197268,0.49277 -0.50483,1.6315 -0.683474,2.53052 -0.462158,2.32579 -0.321146,2.23787 -3.591518,2.23916 -1.410758,5.3e-4 -2.948376,0.0632 -3.416924,0.13924 -0.739108,0.11993 -0.885089,0.10821 -1.102487,-0.0885 -0.137819,-0.12472 -0.250579,-0.3284 -0.250579,-0.45261 0,-0.68866 1.169223,-0.93545 4.431946,-0.93545 2.360591,0 2.378757,-0.002 2.43483,-0.30067 0.26838,-1.42838 0.805117,-3.34458 1.133235,-4.04575 0.726059,-1.55155 2.118963,-2.60576 3.434545,-2.5994 1.035569,0.005 1.572493,0.18429 2.602299,0.8689 1.540952,1.02443 3.220918,3.40272 4.484222,6.34824 0.266991,0.62252 0.527817,1.17806 0.579612,1.23453 0.05179,0.0565 0.373346,-0.45468 0.71456,-1.1359 0.699749,-1.397 1.396156,-2.36044 2.136312,-2.95546 0.692907,-0.55703 1.815158,-0.65112 2.693662,-0.22585 1.083038,0.52429 2.249302,2.07226 3.224909,4.28037 l 0.442393,1.00128 0.1479,-0.39993 c 0.637987,-1.72515 0.879605,-2.2692 1.410674,-3.17643 1.133506,-1.93637 2.564648,-3.03532 4.097192,-3.14618 0.640918,-0.0464 0.902686,0.01 1.625764,0.34805 1.601859,0.7496 2.646653,2.09559 3.859818,4.97252 l 0.196911,0.46696 0.277034,-0.54303 c 0.460087,-0.90185 1.32319,-1.89173 1.990355,-2.28272 1.048269,-0.61432 1.871414,-0.70868 5.449171,-0.62465 3.456101,0.0812 3.81477,0.15319 3.81477,0.76595 0,0.63881 -0.159488,0.66289 -3.808426,0.57493 -4.575207,-0.11027 -4.83204,-0.0379 -5.952159,1.67614 -0.275958,0.42229 -0.666197,1.21871 -0.867196,1.76981 -0.353375,0.96889 -0.360455,1.04098 -0.214225,2.18121 0.218625,1.70477 0.190042,4.60191 -0.05833,5.91118 -0.380849,2.00768 -0.98969,2.82745 -1.774005,2.38858 -0.195281,-0.10927 -0.426828,-0.40712 -0.514553,-0.66188 -0.348219,-1.01127 -0.151477,-4.47787 0.397914,-7.01132 0.383964,-1.77059 0.368028,-2.4418 -0.09043,-3.80859 -0.777473,-2.31787 -1.874258,-3.95849 -3.045928,-4.55623 -0.639765,-0.32639 -1.583587,-0.3258 -2.224919,0.001 -0.601054,0.30663 -1.449234,1.19936 -1.947804,2.0501 -0.56026,0.95602 -1.375804,3.04948 -1.669161,4.28466 l -0.265067,1.11607 0.323003,1.04689 c 0.635685,2.06034 1.221512,5.73929 1.06821,6.70825 -0.03252,0.20556 -0.0953,0.60381 -0.139499,0.88501 -0.06644,0.42265 -0.159327,0.54426 -0.535842,0.70159 -0.544216,0.22738 -0.435673,0.23113 -0.972889,-0.0336 z m -9.318127,-1.61356 c 0.277574,-0.71642 0.308573,-1.53445 0.120269,-3.17383 -0.109747,-0.95549 -0.255797,-1.79438 -0.324546,-1.8642 -0.213162,-0.21649 -0.151924,3.13544 0.0708,3.8755 0.171984,0.57147 0.171984,0.67694 0,0.86698 -0.218189,0.2411 -0.259832,0.52941 -0.07647,0.52941 0.06564,0 0.16011,-0.10524 0.209947,-0.23386 z m 9.44309,-2.57247 -0.121388,-0.60136 -0.01318,0.66817 c -0.0072,0.3675 0.03127,0.90872 0.08558,1.20272 l 0.09876,0.53454 0.0358,-0.60136 c 0.01969,-0.33075 -0.01881,-0.87197 -0.08558,-1.20271 z"
         id="path2632" />
    </clipPath>
  </defs>
  <sodipodi:namedview
     id="base"
     pagecolor="#ffffff"
     bordercolor="#666666"
     borderopacity="1.0"
     inkscape:pageopacity="0.0"
     inkscape:pageshadow="2"
     inkscape:zoom="0.98994952"
     inkscape:cx="110.51732"
     inkscape:cy="96.732773"
     inkscape:document-units="mm"
     inkscape:current-layer="layer1"
     inkscape:document-rotation="0"
     showgrid="false"
     units="px"
     borderlayer="true"
     inkscape:showpageshadow="false"
     inkscape:pagecheckerboard="true"
     inkscape:snap-global="true"
     inkscape:window-width="1366"
     inkscape:window-height="704"
     inkscape:window-x="0"
     inkscape:window-y="27"
     inkscape:window-maximized="1" />
  <metadata
     id="metadata5">
    <rdf:RDF>
      <cc:Work
         rdf:about="">
        <dc:format>image/svg+xml</dc:format>
        <dc:type
           rdf:resource="http://purl.org/dc/dcmitype/StillImage" />
        <dc:title />
      </cc:Work>
    </rdf:RDF>
  </metadata>
  <g
     inkscape:label="Layer 1"
     inkscape:groupmode="layer"
     id="layer1"
     transform="translate(-9.7737007,-121.76546)">
    <path
       id="rect1835"
       style="fill:url(#linearGradient1855);fill-opacity:1;stroke:none;stroke-width:12.0171"
       d="m 11.618883,121.76546 c -1.022228,0 -1.8451823,0.82296 -1.8451823,1.8452 v 27.12376 c 0.9796703,-0.1494 2.3947623,-0.21408 4.3541983,-0.21408 3.292518,0 3.318076,-0.002 3.396292,-0.41878 0.37433,-1.9923 1.123,-4.66502 1.580656,-5.64298 1.012694,-2.1641 2.955314,-3.63514 4.790266,-3.62626 1.444394,0.006 2.193464,0.25744 3.629822,1.21234 2.149295,1.42888 4.492123,4.7457 6.254157,8.8541 0.372396,0.86828 0.736468,1.64316 0.808712,1.72192 0.07224,0.0788 0.520908,-0.6341 0.99683,-1.58426 0.975998,-1.94854 1.94732,-3.29222 2.97968,-4.12214 0.966456,-0.77696 2.531354,-0.90818 3.756678,-0.31498 1.510602,0.73126 3.137592,2.89036 4.498352,5.97022 l 0.616982,1.39686 0.206142,-0.55786 c 0.889854,-2.40624 1.226988,-3.16526 1.967714,-4.43064 1.580996,-2.70088 3.576734,-4.2335 5.714298,-4.38814 0.893942,-0.0646 1.259022,0.014 2.267552,0.4851 2.234252,1.04552 3.692092,2.92334 5.384192,6.93608 l 0.27461,0.65084 0.386334,-0.7568 c 0.641726,-1.25788 1.845158,-2.63906 2.775708,-3.1844 1.462108,-0.85686 2.610368,-0.98864 7.600568,-0.87144 1.609308,0.0378 2.705154,0.077 3.49359,0.1406 v -24.379 c 0,-1.02224 -0.82295,-1.8452 -1.845178,-1.8452 z m 12.493182,20.78376 c -0.21827,-0.01 -0.432502,0.004 -0.641488,0.0432 -1.011144,0.1876 -2.270776,1.54786 -2.908324,3.14044 -0.275146,0.68732 -0.704418,2.27572 -0.953586,3.52966 -0.644608,3.24402 -0.447922,3.12134 -5.009382,3.12314 -1.967704,5.4e-4 -4.112234,0.0886 -4.7657599,0.1946 -0.024392,0.004 -0.036354,0.006 -0.059824,0.008 v 35.06531 c 0,1.02224 0.8229539,1.84522 1.8451819,1.84522 h 64.042973 c 1.022228,0 1.845178,-0.82298 1.845178,-1.84522 v -37.89149 c -0.783314,0.014 -1.869116,-0.004 -3.484944,-0.0432 -6.381422,-0.1538 -6.739556,-0.0526 -8.301878,2.33822 -0.384906,0.58898 -0.92911,1.7 -1.209464,2.46866 -0.492882,1.35142 -0.502358,1.45132 -0.298396,3.04172 0.304932,2.3778 0.264974,6.41886 -0.08144,8.24502 -0.531204,2.80032 -1.380474,3.94356 -2.47442,3.33146 -0.272378,-0.1524 -0.59554,-0.56728 -0.717894,-0.9226 -0.485692,-1.41052 -0.211286,-6.24592 0.554994,-9.77958 0.535544,-2.46962 0.513314,-3.40576 -0.12614,-5.31216 -1.08441,-3.23296 -2.614024,-5.5214 -4.248246,-6.35512 -0.892332,-0.45528 -2.209136,-0.4544 -3.103656,0.002 -0.83834,0.42768 -2.0212,1.6727 -2.7166,2.85932 -0.78144,1.33348 -1.91893,4.25318 -2.328098,5.97602 l -0.36976,1.5569 0.450486,1.46028 c 0.886644,2.87378 1.703664,8.00498 1.48984,9.35648 -0.04534,0.28672 -0.13296,0.84248 -0.19462,1.2347 -0.09266,0.5895 -0.221562,0.7594 -0.74672,0.97882 -0.759062,0.31716 -0.607922,0.3224 -1.35722,-0.0468 -1.042806,-0.51394 -1.542628,-1.92668 -1.899962,-5.37272 -0.12038,-1.161 -0.10898,-2.54408 0.03532,-4.30378 0.1169,-1.426 0.212232,-2.84444 0.211904,-3.15198 -7.4e-4,-0.88394 -1.896848,-5.23932 -2.998422,-6.8878 -1.144154,-1.7122 -2.079468,-2.5249 -2.906162,-2.5249 -1.272692,0 -3.615554,3.42542 -4.597098,6.72128 l -0.387052,1.30032 0.376962,1.34786 c 1.10535,3.95004 1.607338,8.4754 1.145312,10.32374 -0.265912,1.06378 -1.011126,1.92808 -1.662108,1.92808 -0.769864,0 -1.638912,-0.82708 -2.10322,-2.00232 -0.38534,-0.97536 -0.424702,-1.38556 -0.433186,-4.52074 -0.0072,-2.70232 0.0698,-3.84738 0.356066,-5.29196 l 0.36543,-1.84306 -0.523282,-1.5122 c -0.840576,-2.42814 -2.956742,-6.60484 -4.184814,-8.26016 -1.663149,-2.24178 -3.398607,-3.48482 -4.926495,-3.55272 z m 10.822429,18.31144 c -0.264996,5.4e-4 -0.17552,4.4196 0.12542,5.41958 0.239884,0.79708 0.239884,0.9444 0,1.20946 -0.304322,0.3363 -0.362424,0.7381 -0.10668,0.7381 0.09156,0 0.223126,-0.1464 0.292636,-0.3258 0.387154,-0.99928 0.430584,-2.14044 0.16794,-4.42704 -0.15308,-1.33272 -0.356754,-2.50248 -0.452646,-2.59988 -0.0094,-0.01 -0.0182,-0.014 -0.02668,-0.014 z m 13.313422,2.6143 -0.0188,0.93196 c -0.01,0.51258 0.0439,1.2672 0.11964,1.67726 l 0.13766,0.746 0.04974,-0.83898 c 0.02746,-0.46134 -0.0258,-1.21596 -0.11892,-1.67726 z" />
  </g>
</svg>
